<svg width="20" height="20" viewBox="0 0 20 20" fill="none" xmlns="http://www.w3.org/2000/svg">
<g clip-path="url(#clip0_1_30)">
<path opacity="0.966" fill-rule="evenodd" clip-rule="evenodd" d="M7.55859 -0.0195312C8.10547 -0.0195312 8.65234 -0.0195312 9.19922 -0.0195312C12.0582 0.325225 14.2391 1.71845 15.7422 4.16016C16.9982 6.49648 17.1544 8.90535 16.2109 11.3867C15.8239 12.2787 15.3096 13.086 14.668 13.8086C16.3992 15.5334 18.1375 17.2521 19.8828 18.9648C19.9066 19.026 19.9391 19.0781 19.9805 19.1211C19.9805 19.2643 19.9805 19.4075 19.9805 19.5508C19.9023 19.7591 19.7591 19.9023 19.5508 19.9805C19.4075 19.9805 19.2643 19.9805 19.1211 19.9805C19.0403 19.9463 18.9622 19.9007 18.8867 19.8438C17.1609 18.1375 15.4291 16.4382 13.6914 14.7461C11.0267 16.6753 8.14906 17.0594 5.05859 15.8984C2.12554 14.5306 0.432824 12.2455 -0.0195312 9.04297C-0.0195312 8.52215 -0.0195312 8.00129 -0.0195312 7.48047C0.389202 4.4223 1.96472 2.18925 4.70703 0.78125C5.62316 0.373329 6.57367 0.106401 7.55859 -0.0195312ZM8.10547 1.26953C10.676 1.26253 12.7268 2.27815 14.2578 4.31641C15.6077 6.39613 15.8421 8.59664 14.9609 10.918C13.9662 13.1185 12.293 14.5052 9.94141 15.0781C7.4975 15.5448 5.34906 14.9589 3.49609 13.3203C1.36206 11.1312 0.795656 8.58559 1.79688 5.68359C2.78132 3.43635 4.4675 2.02359 6.85547 1.44531C7.27465 1.36216 7.69129 1.30357 8.10547 1.26953Z" fill="#1B202C" fill-opacity="0.8"/>
</g>
<defs>
<clipPath id="clip0_1_30">
<rect width="20" height="20" fill="white"/>
</clipPath>
</defs>
</svg>
