<svg width="16" height="16" viewBox="0 0 16 16" fill="none" xmlns="http://www.w3.org/2000/svg">
<path opacity="0.992" fill-rule="evenodd" clip-rule="evenodd" d="M7.3125 0C7.78125 0 8.25 0 8.71875 0C11.7042 0.377203 13.8865 1.89804 15.2656 4.5625C15.6376 5.38422 15.8824 6.23838 16 7.125C16 7.71875 16 8.3125 16 8.90625C15.5336 11.9923 13.8773 14.1746 11.0312 15.4531C10.3413 15.7233 9.63297 15.9056 8.90625 16C8.3125 16 7.71875 16 7.125 16C4.13778 15.5667 1.98674 13.9937 0.671875 11.2812C0.319904 10.4565 0.0959456 9.60234 0 8.71875C0 8.23959 0 7.76041 0 7.28125C0.306424 4.64822 1.56684 2.61176 3.78125 1.17188C4.87256 0.5147 6.04962 0.124075 7.3125 0ZM7.625 3.5625C8.37009 3.50091 9.07844 3.63109 9.75 3.95312C10.5956 4.51475 10.9342 5.30122 10.7656 6.3125C10.6632 6.75716 10.4548 7.14256 10.1406 7.46875C9.89584 7.69272 9.65103 7.91666 9.40625 8.14062C8.94519 8.52647 8.72644 9.02125 8.75 9.625C8.1875 9.625 7.625 9.625 7.0625 9.625C7.0665 9.13338 7.14463 8.65422 7.29688 8.1875C7.38275 8.02606 7.4765 7.86981 7.57812 7.71875C7.91581 7.40953 8.23875 7.08663 8.54688 6.75C8.76859 6.42894 8.84153 6.07478 8.76562 5.6875C8.67303 5.293 8.42303 5.09506 8.01562 5.09375C7.59762 5.1055 7.33722 5.31384 7.23438 5.71875C7.19975 5.83081 7.18412 5.94541 7.1875 6.0625C6.52084 6.0625 5.85416 6.0625 5.1875 6.0625C5.20653 4.85153 5.78988 4.06506 6.9375 3.70312C7.16891 3.64563 7.39809 3.59875 7.625 3.5625ZM7.8125 10.4375C8.26681 10.4069 8.62619 10.5736 8.89062 10.9375C9.15119 11.5049 9.02097 11.958 8.5 12.2969C8.08337 12.4595 7.67712 12.4387 7.28125 12.2344C6.82034 11.8569 6.73181 11.4038 7.01562 10.875C7.22791 10.6257 7.49353 10.4799 7.8125 10.4375Z" fill="#1B202C"/>
</svg>
